<mxfile host="app.diagrams.net" modified="2023-12-25T16:11:55.956Z" agent="Mozilla/5.0 (Windows NT 10.0; Win64; x64) AppleWebKit/537.36 (KHTML, like Gecko) Chrome/120.0.0.0 Safari/537.36" etag="VFGyEgDvbq-IIOqjqT4d" version="22.1.11" type="google">
  <diagram name="第 1 页" id="iP6UVX6XNadLcQfr2j7k">
    <mxGraphModel grid="1" page="1" gridSize="10" guides="1" tooltips="1" connect="1" arrows="1" fold="1" pageScale="1" pageWidth="827" pageHeight="1169" math="0" shadow="0">
      <root>
        <mxCell id="0" />
        <mxCell id="1" parent="0" />
        <mxCell id="MBWNWGLmqZ5mWi04Kw9N-12" value="" style="rounded=0;whiteSpace=wrap;html=1;fillColor=#d5e8d4;strokeColor=#82b366;" vertex="1" parent="1">
          <mxGeometry x="275" y="440" width="10" height="50" as="geometry" />
        </mxCell>
        <mxCell id="MBWNWGLmqZ5mWi04Kw9N-1" value=":securityGuard" style="rounded=0;whiteSpace=wrap;html=1;fillColor=#d5e8d4;strokeColor=#82b366;" vertex="1" parent="1">
          <mxGeometry x="110" y="115" width="100" height="50" as="geometry" />
        </mxCell>
        <mxCell id="MBWNWGLmqZ5mWi04Kw9N-2" value="管理員" style="shape=umlActor;verticalLabelPosition=bottom;verticalAlign=top;html=1;outlineConnect=0;" vertex="1" parent="1">
          <mxGeometry x="30" y="110" width="30" height="60" as="geometry" />
        </mxCell>
        <mxCell id="MBWNWGLmqZ5mWi04Kw9N-3" value=":securityProfile" style="rounded=0;whiteSpace=wrap;html=1;fillColor=#d5e8d4;strokeColor=#82b366;" vertex="1" parent="1">
          <mxGeometry x="230" y="115" width="100" height="50" as="geometry" />
        </mxCell>
        <mxCell id="MBWNWGLmqZ5mWi04Kw9N-4" value="" style="rounded=0;whiteSpace=wrap;html=1;fillColor=#d5e8d4;strokeColor=#82b366;" vertex="1" parent="1">
          <mxGeometry x="40" y="190" width="10" height="320" as="geometry" />
        </mxCell>
        <mxCell id="MBWNWGLmqZ5mWi04Kw9N-7" value="" style="rounded=0;whiteSpace=wrap;html=1;fillColor=#d5e8d4;strokeColor=#82b366;" vertex="1" parent="1">
          <mxGeometry x="155" y="220" width="10" height="290" as="geometry" />
        </mxCell>
        <mxCell id="MBWNWGLmqZ5mWi04Kw9N-5" value="" style="endArrow=none;dashed=1;html=1;rounded=0;entryX=0.5;entryY=1;entryDx=0;entryDy=0;" edge="1" parent="1" target="MBWNWGLmqZ5mWi04Kw9N-1">
          <mxGeometry width="50" height="50" relative="1" as="geometry">
            <mxPoint x="160" y="530" as="sourcePoint" />
            <mxPoint x="190" y="270" as="targetPoint" />
          </mxGeometry>
        </mxCell>
        <mxCell id="MBWNWGLmqZ5mWi04Kw9N-9" style="edgeStyle=orthogonalEdgeStyle;rounded=0;orthogonalLoop=1;jettySize=auto;html=1;exitX=1;exitY=0.25;exitDx=0;exitDy=0;entryX=0.06;entryY=0.17;entryDx=0;entryDy=0;entryPerimeter=0;" edge="1" parent="1">
          <mxGeometry relative="1" as="geometry">
            <mxPoint x="50" y="220.7" as="sourcePoint" />
            <mxPoint x="155.60000000000002" y="219.99999999999994" as="targetPoint" />
            <Array as="points">
              <mxPoint x="103" y="220.7" />
            </Array>
          </mxGeometry>
        </mxCell>
        <mxCell id="MBWNWGLmqZ5mWi04Kw9N-6" value="" style="endArrow=none;dashed=1;html=1;rounded=0;entryX=0.5;entryY=1;entryDx=0;entryDy=0;" edge="1" parent="1">
          <mxGeometry width="50" height="50" relative="1" as="geometry">
            <mxPoint x="279.5" y="530" as="sourcePoint" />
            <mxPoint x="279.5" y="165" as="targetPoint" />
          </mxGeometry>
        </mxCell>
        <mxCell id="MBWNWGLmqZ5mWi04Kw9N-10" value="logOn()" style="text;html=1;align=center;verticalAlign=middle;resizable=0;points=[];autosize=1;strokeColor=none;fillColor=none;" vertex="1" parent="1">
          <mxGeometry x="70" y="220" width="60" height="30" as="geometry" />
        </mxCell>
        <mxCell id="MBWNWGLmqZ5mWi04Kw9N-11" value="" style="rounded=0;whiteSpace=wrap;html=1;fillColor=#d5e8d4;strokeColor=#82b366;" vertex="1" parent="1">
          <mxGeometry x="165" y="325" width="20" height="50" as="geometry" />
        </mxCell>
        <mxCell id="MBWNWGLmqZ5mWi04Kw9N-15" value="" style="endArrow=classic;html=1;rounded=0;exitX=1.02;exitY=0.172;exitDx=0;exitDy=0;exitPerimeter=0;entryX=1;entryY=0.5;entryDx=0;entryDy=0;" edge="1" parent="1" source="MBWNWGLmqZ5mWi04Kw9N-7" target="MBWNWGLmqZ5mWi04Kw9N-11">
          <mxGeometry width="50" height="50" relative="1" as="geometry">
            <mxPoint x="140" y="420" as="sourcePoint" />
            <mxPoint x="190" y="370" as="targetPoint" />
            <Array as="points">
              <mxPoint x="200" y="270" />
              <mxPoint x="200" y="350" />
            </Array>
          </mxGeometry>
        </mxCell>
        <mxCell id="MBWNWGLmqZ5mWi04Kw9N-16" value="" style="endArrow=classic;html=1;rounded=0;exitX=1.177;exitY=0.796;exitDx=0;exitDy=0;exitPerimeter=0;entryX=0;entryY=0.25;entryDx=0;entryDy=0;" edge="1" parent="1" source="MBWNWGLmqZ5mWi04Kw9N-7" target="MBWNWGLmqZ5mWi04Kw9N-12">
          <mxGeometry width="50" height="50" relative="1" as="geometry">
            <mxPoint x="175" y="280" as="sourcePoint" />
            <mxPoint x="270" y="450" as="targetPoint" />
            <Array as="points" />
          </mxGeometry>
        </mxCell>
        <mxCell id="MBWNWGLmqZ5mWi04Kw9N-17" value="" style="endArrow=block;dashed=1;endFill=0;endSize=12;html=1;rounded=0;exitX=1;exitY=0.75;exitDx=0;exitDy=0;entryX=1.133;entryY=0.584;entryDx=0;entryDy=0;entryPerimeter=0;" edge="1" parent="1" source="MBWNWGLmqZ5mWi04Kw9N-11" target="MBWNWGLmqZ5mWi04Kw9N-7">
          <mxGeometry width="160" relative="1" as="geometry">
            <mxPoint x="110" y="550" as="sourcePoint" />
            <mxPoint x="160" y="400" as="targetPoint" />
            <Array as="points">
              <mxPoint x="200" y="365" />
              <mxPoint x="200" y="390" />
            </Array>
          </mxGeometry>
        </mxCell>
        <mxCell id="MBWNWGLmqZ5mWi04Kw9N-18" value="" style="endArrow=block;dashed=1;endFill=0;endSize=12;html=1;rounded=0;exitX=0;exitY=0.75;exitDx=0;exitDy=0;" edge="1" parent="1" source="MBWNWGLmqZ5mWi04Kw9N-12">
          <mxGeometry width="160" relative="1" as="geometry">
            <mxPoint x="100" y="400" as="sourcePoint" />
            <mxPoint x="170" y="478" as="targetPoint" />
          </mxGeometry>
        </mxCell>
        <mxCell id="MBWNWGLmqZ5mWi04Kw9N-19" value="finedsecurityProfile()" style="text;html=1;align=center;verticalAlign=middle;resizable=0;points=[];autosize=1;strokeColor=none;fillColor=none;" vertex="1" parent="1">
          <mxGeometry x="155" y="240" width="130" height="30" as="geometry" />
        </mxCell>
        <mxCell id="MBWNWGLmqZ5mWi04Kw9N-20" value="VaildatePassword()" style="text;html=1;align=center;verticalAlign=middle;resizable=0;points=[];autosize=1;strokeColor=none;fillColor=none;" vertex="1" parent="1">
          <mxGeometry x="155" y="428" width="130" height="30" as="geometry" />
        </mxCell>
      </root>
    </mxGraphModel>
  </diagram>
</mxfile>
